# xmcd CD database file
#
# Track frame offsets:
#	150
#	23388
#	41360
#	59157
#	75328
#	92139
#	109755
#	135050
#	149106
#	171200
#	189594
#	204538
#
# Disc length: 2912 seconds
#
# Revision: 3
# Processed by: cddbd v1.5.2PL0 Copyright (c) Steve Scherf et al.
# Submitted via: CDex 1.77
#
DISCID=9c0b5e0c
DTITLE=Shlomo Artzi - My Love Songs - CD 2
DYEAR=2003
DGENRE=Country
TTITLE0=A Men Gets Lost
TTITLE1=Sudenly When You Didn't Come
TTITLE2=Birthdays
TTITLE3=Get Old Together
TTITLE4=The Old Love
TTITLE5=Her Beauty Is Unknown
TTITLE6=Days Like These
TTITLE7=Wipe Your Tears
TTITLE8=I Was Made For You
TTITLE9=Come And Untangle
TTITLE10=Say
TTITLE11=Two (Melody)
EXTD=YEAR: 2003
EXTT0=
EXTT1=
EXTT2=
EXTT3=
EXTT4=
EXTT5=
EXTT6=
EXTT7=
EXTT8=
EXTT9=
EXTT10=
EXTT11=
PLAYORDER=
